#!OML:ASF H:\Terrain\Patient Classification 1\Takeo\Monday\TakeoMonday.ASF
:FULLY-SPECIFIED
:DEGREES
97
root 4.67454 17.6737 0.318503 -3.99203 57.6141 -1.41019
lowerback 8.15511 -5.304 7.88672
upperback 3.80422 -6.4337 -1.77999
thorax -1.64455 -3.12924 -5.6029
lowerneck -12.0332 -5.17929 -4.45937
upperneck -4.55838 -6.21892 5.29611
head 0.934274 -2.91629 2.16913
rclavicle 6.13251e-014 7.95139e-016
rhumerus -21.0904 35.2505 -105.577
rradius 67.4242
rwrist -6.96088
rhand -49.6953 59.0383
rfingers 7.12502
rthumb -22.2967 30.3047
lclavicle 6.13251e-014 7.95139e-016
lhumerus -7.12529 -37.8009 102.395
lradius 76.4121
lwrist 28.9801
lhand -39.2653 14.0423
lfingers 7.12502
lthumb -12.2595 43.663
rfemur -8.32786 -4.03837 16.2065
rtibia 24.7117
rfoot -11.6865 -5.58091
rtoes -7.39977
lfemur -11.3388 -14.7438 -17.2358
ltibia 31.5444
lfoot -16.2189 14.5992
ltoes -11.2715
98
root 4.64057 17.6848 0.331589 -3.68475 58.2855 -1.0556
lowerback 8.03087 -5.34419 7.62139
upperback 3.90352 -6.51646 -1.74818
thorax -1.45453 -3.16129 -5.42803
lowerneck -11.9138 -5.04812 -4.44139
upperneck -4.72856 -6.04372 5.32187
head 0.850402 -2.82989 2.18763
rclavicle -2.59166e-014 -8.94531e-015
rhumerus -20.6971 35.7448 -105.318
rradius 67.1646
rwrist -7.1307
rhand -49.8279 58.8505
rfingers 7.12502
rthumb -22.4239 30.1322
lclavicle -2.59166e-014 -8.94531e-015
lhumerus -6.80056 -37.3472 102.165
lradius 76.2453
lwrist 28.8462
lhand -39.0649 14.5166
lfingers 7.12502
lthumb -12.0662 44.1487
rfemur -8.29002 -4.33573 16.052
rtibia 24.7081
rfoot -11.7332 -6.00705
rtoes -6.8206
lfemur -11.4329 -13.4631 -17.5105
ltibia 32.0743
lfoot -17.1299 16.123
ltoes -9.63925
99
root 4.61161 17.6879 0.352589 -3.29543 58.9278 -0.52127
lowerback 8.05627 -5.31477 7.38137
upperback 3.84773 -6.49411 -1.8487
thorax -1.5107 -3.15579 -5.3976
lowerneck -11.4478 -4.97252 -3.90265
upperneck -4.95952 -6.01861 4.76695
head 0.651507 -2.84053 1.92247
rclavicle -2.51711e-014 5.96354e-016
rhumerus -20.752 35.5212 -105.517
rradius 66.8203
rwrist -6.56085
rhand -49.8674 58.7626
rfingers 7.12502
rthumb -22.4619 30.0488
lclavicle -2.51711e-014 5.96354e-016
lhumerus -6.97265 -36.996 102.131
lradius 76.0804
lwrist 28.9589
lhand -38.9575 14.666
lfingers 7.12502
lthumb -11.9627 44.3041
rfemur -8.09614 -4.43151 15.8101
rtibia 24.6613
rfoot -11.7369 -6.49382
rtoes -5.92283
lfemur -11.3985 -12.0901 -17.8966
ltibia 32.6667
lfoot -17.4095 17.5601
ltoes -9.18546
100
root 4.57798 17.6823 0.368475 -3.38682 59.5827 -0.729764
lowerback 8.14962 -5.26643 7.65937
upperback 3.57848 -6.40019 -1.85387
thorax -1.8585 -3.13012 -5.54687
lowerneck -10.9913 -4.94323 -3.79606
upperneck -4.87817 -6.01453 4.64165
head 0.591745 -2.84878 1.87138
rclavicle 3.68994e-014 -1.61016e-014
rhumerus -21.0317 35.178 -105.693
rradius 66.5551
rwrist -6.34289
rhand -49.8419 59.1191
rfingers 7.12502
rthumb -22.4374 30.4023
lclavicle 3.68994e-014 -1.61016e-014
lhumerus -7.47877 -36.6328 102.41
lradius 75.9468
lwrist 29.0938
lhand -38.6996 14.2841
lfingers 7.12502
lthumb -11.714 43.9366
rfemur -8.10019 -4.5641 16.0074
rtibia 24.6453
rfoot -11.8419 -6.83657
rtoes -5.21391
lfemur -11.5346 -10.5272 -17.7859
ltibia 33.2771
lfoot -17.1071 18.6931
ltoes -9.02817
101
root 4.53985 17.6884 0.380631 -3.59589 60.2303 -1.00885
lowerback 8.33288 -5.26993 7.85592
upperback 3.3769 -6.37041 -1.80167
thorax -2.18006 -3.13352 -5.57894
lowerneck -10.5958 -4.8779 -4.05387
upperneck -4.73227 -5.92105 4.95736
head 0.590695 -2.80057 2.03025
rclavicle 2.96189e-014 -5.96354e-016
rhumerus -21.0819 35.219 -105.617
rradius 66.4052
rwrist -6.82981
rhand -49.4357 59.1429
rfingers 7.12502
rthumb -22.0474 30.3797
lclavicle 2.96189e-014 -5.96354e-016
lhumerus -7.84824 -36.1528 102.612
lradius 75.8703
lwrist 28.9718
lhand -38.322 14.0723
lfingers 7.12502
lthumb -11.3498 43.7451
rfemur -8.10564 -4.8777 16.2237
rtibia 24.7089
rfoot -12.0403 -7.09414
rtoes -4.85707
lfemur -11.6839 -8.84424 -17.6256
ltibia 33.932
lfoot -17.2702 19.2251
ltoes -7.58301
102
root 4.50196 17.6953 0.397665 -3.54549 60.801 -0.83443
lowerback 8.43837 -5.25273 7.58626
upperback 3.40064 -6.35764 -1.76095
thorax -2.17952 -3.1258 -5.38064
lowerneck -10.3502 -4.89951 -4.15396
upperneck -4.60634 -5.95518 5.08344
head 0.600194 -2.81886 2.09122
rclavicle -1.79155e-014 -4.77083e-015
rhumerus -20.8745 35.3435 -105.461
rradius 66.2991
rwrist -7.30683
rhand -48.6621 58.5121
rfingers 7.12502
rthumb -21.3045 29.6631
lclavicle -1.79155e-014 -4.77083e-015
lhumerus -7.72668 -35.741 102.43
lradius 75.7787
lwrist 28.7049
lhand -38.1239 14.0075
lfingers 7.12502
lthumb -11.1587 43.6908
rfemur -8.01614 -5.13152 16.2001
rtibia 24.847
rfoot -12.2518 -7.50884
rtoes -5.38188
lfemur -11.6219 -7.32592 -17.6853
ltibia 34.6615
lfoot -18.0638 19.1301
ltoes -3.69122
